<mxfile host="app.diagrams.net" modified="2024-01-11T18:05:09.656Z" agent="Mozilla/5.0 (Windows NT 10.0; Win64; x64) AppleWebKit/537.36 (KHTML, like Gecko) Chrome/120.0.0.0 Safari/537.36" etag="9FY8oFzn7JntcWnDonFm" version="22.1.17" type="github">
  <diagram name="PÃ¡gina-1" id="GBLj2HJxkaN0v3ovoP4k">
    <mxGraphModel dx="1318" dy="511" grid="1" gridSize="10" guides="1" tooltips="1" connect="1" arrows="1" fold="1" page="1" pageScale="1" pageWidth="1600" pageHeight="900" math="0" shadow="0">
      <root>
        <mxCell id="0" />
        <mxCell id="1" parent="0" />
        <mxCell id="eEguTPvkVB0h5QyZY-1I-10" style="edgeStyle=orthogonalEdgeStyle;rounded=0;orthogonalLoop=1;jettySize=auto;html=1;" edge="1" parent="1" source="eEguTPvkVB0h5QyZY-1I-1" target="eEguTPvkVB0h5QyZY-1I-2">
          <mxGeometry relative="1" as="geometry" />
        </mxCell>
        <mxCell id="eEguTPvkVB0h5QyZY-1I-1" value="Amazon RDS" style="sketch=0;outlineConnect=0;fontColor=#232F3E;gradientColor=none;strokeColor=#ffffff;fillColor=#232F3E;dashed=0;verticalLabelPosition=middle;verticalAlign=bottom;align=center;html=1;whiteSpace=wrap;fontSize=10;fontStyle=1;spacing=3;shape=mxgraph.aws4.productIcon;prIcon=mxgraph.aws4.rds;" vertex="1" parent="1">
          <mxGeometry x="160" y="280" width="80" height="100" as="geometry" />
        </mxCell>
        <mxCell id="eEguTPvkVB0h5QyZY-1I-12" style="edgeStyle=orthogonalEdgeStyle;rounded=0;orthogonalLoop=1;jettySize=auto;html=1;" edge="1" parent="1" source="eEguTPvkVB0h5QyZY-1I-2" target="eEguTPvkVB0h5QyZY-1I-3">
          <mxGeometry relative="1" as="geometry" />
        </mxCell>
        <mxCell id="eEguTPvkVB0h5QyZY-1I-2" value="AWS Lambda" style="sketch=0;outlineConnect=0;fontColor=#232F3E;gradientColor=none;strokeColor=#ffffff;fillColor=#232F3E;dashed=0;verticalLabelPosition=middle;verticalAlign=bottom;align=center;html=1;whiteSpace=wrap;fontSize=10;fontStyle=1;spacing=3;shape=mxgraph.aws4.productIcon;prIcon=mxgraph.aws4.lambda;" vertex="1" parent="1">
          <mxGeometry x="320" y="280" width="80" height="100" as="geometry" />
        </mxCell>
        <mxCell id="eEguTPvkVB0h5QyZY-1I-13" style="edgeStyle=orthogonalEdgeStyle;rounded=0;orthogonalLoop=1;jettySize=auto;html=1;" edge="1" parent="1" source="eEguTPvkVB0h5QyZY-1I-3" target="eEguTPvkVB0h5QyZY-1I-9">
          <mxGeometry relative="1" as="geometry">
            <mxPoint x="629.9999999999998" y="330" as="targetPoint" />
          </mxGeometry>
        </mxCell>
        <mxCell id="eEguTPvkVB0h5QyZY-1I-3" value="Amazon S3" style="sketch=0;outlineConnect=0;fontColor=#232F3E;gradientColor=none;strokeColor=#ffffff;fillColor=#232F3E;dashed=0;verticalLabelPosition=middle;verticalAlign=bottom;align=center;html=1;whiteSpace=wrap;fontSize=10;fontStyle=1;spacing=3;shape=mxgraph.aws4.productIcon;prIcon=mxgraph.aws4.s3;" vertex="1" parent="1">
          <mxGeometry x="480" y="280" width="80" height="100" as="geometry" />
        </mxCell>
        <mxCell id="eEguTPvkVB0h5QyZY-1I-8" value="" style="group" vertex="1" connectable="0" parent="1">
          <mxGeometry x="320" y="100" width="80" height="100" as="geometry" />
        </mxCell>
        <mxCell id="eEguTPvkVB0h5QyZY-1I-7" value="Event Bridge" style="sketch=0;outlineConnect=0;fontColor=#232F3E;gradientColor=none;strokeColor=#ffffff;fillColor=#232F3E;dashed=0;verticalLabelPosition=middle;verticalAlign=bottom;align=center;html=1;whiteSpace=wrap;fontSize=10;fontStyle=1;spacing=3;shape=mxgraph.aws4.productIcon;prIcon=mxgraph.aws4.s3;" vertex="1" parent="eEguTPvkVB0h5QyZY-1I-8">
          <mxGeometry width="80" height="100" as="geometry" />
        </mxCell>
        <mxCell id="eEguTPvkVB0h5QyZY-1I-6" value="" style="sketch=0;points=[[0,0,0],[0.25,0,0],[0.5,0,0],[0.75,0,0],[1,0,0],[0,1,0],[0.25,1,0],[0.5,1,0],[0.75,1,0],[1,1,0],[0,0.25,0],[0,0.5,0],[0,0.75,0],[1,0.25,0],[1,0.5,0],[1,0.75,0]];outlineConnect=0;fontColor=#232F3E;fillColor=#232F3E;strokeColor=#ffffff;dashed=0;verticalLabelPosition=bottom;verticalAlign=top;align=center;html=1;fontSize=12;fontStyle=0;aspect=fixed;shape=mxgraph.aws4.resourceIcon;resIcon=mxgraph.aws4.eventbridge;" vertex="1" parent="eEguTPvkVB0h5QyZY-1I-8">
          <mxGeometry width="80" height="80" as="geometry" />
        </mxCell>
        <mxCell id="eEguTPvkVB0h5QyZY-1I-9" value="Amazon Athena" style="sketch=0;outlineConnect=0;fontColor=#232F3E;gradientColor=none;strokeColor=#ffffff;fillColor=#232F3E;dashed=0;verticalLabelPosition=middle;verticalAlign=bottom;align=center;html=1;whiteSpace=wrap;fontSize=10;fontStyle=1;spacing=3;shape=mxgraph.aws4.productIcon;prIcon=mxgraph.aws4.athena;" vertex="1" parent="1">
          <mxGeometry x="640" y="277.5" width="80" height="105" as="geometry" />
        </mxCell>
        <mxCell id="eEguTPvkVB0h5QyZY-1I-11" style="edgeStyle=orthogonalEdgeStyle;rounded=0;orthogonalLoop=1;jettySize=auto;html=1;" edge="1" parent="1" source="eEguTPvkVB0h5QyZY-1I-7" target="eEguTPvkVB0h5QyZY-1I-2">
          <mxGeometry relative="1" as="geometry" />
        </mxCell>
      </root>
    </mxGraphModel>
  </diagram>
</mxfile>
